<svg xmlns="http://www.w3.org/2000/svg" version="1.1" xmlns:xlink="http://www.w3.org/1999/xlink" width="1000" height="1000"><g clip-path="url(#SvgjsClipPath1164)"><rect width="1000" height="1000" fill="#"></rect><g transform="matrix(4.5,0,0,4.5,50,50)"><svg xmlns="http://www.w3.org/2000/svg" version="1.1" xmlns:xlink="http://www.w3.org/1999/xlink" width="200" height="200"><svg xmlns="http://www.w3.org/2000/svg" version="1.1" xmlns:xlink="http://www.w3.org/1999/xlink" viewBox="0 0 200 200"><rect width="200" height="200" fill="url('#gradient')"></rect><defs><linearGradient id="gradient" gradientTransform="rotate(0 0.5 0.5)"><stop offset="0%" stop-color="#151515"></stop><stop offset="100%" stop-color="#151515"></stop></linearGradient><clipPath id="SvgjsClipPath1164"><rect width="1000" height="1000" x="0" y="0" rx="500" ry="500"></rect></clipPath></defs><g><g fill="#4ee1a0" transform="matrix(6.1537559545621106,0,0,6.1537559545621106,18.18491222073675,143.75258052503727)" stroke="#c8512e" stroke-width="0"><path d="M9.98 0L9.15-2.66L4.45-2.66L3.63 0L-0.03 0L5.19-14.22L8.41-14.22L13.66 0L9.98 0ZM6.80-10.23L5.27-5.30L8.33-5.30L6.80-10.23ZM22.56 0L19.53-5.29L18.13-3.75L18.13 0L14.70 0L14.70-14.22L18.13-14.22L18.13-7.95L19.32-9.76L22.38-14.22L26.62-14.22L21.82-7.93L26.62 0L22.56 0Z"></path></g></g></svg></svg></g></g></svg>