<svg width="169" height="29" viewBox="0 0 169 29" fill="none" xmlns="http://www.w3.org/2000/svg">
<path d="M5.95218 22.8479C4.82151 22.8479 3.80818 22.6559 2.91218 22.2719C2.01618 21.8666 1.30151 21.2906 0.76818 20.5439C0.25618 19.7759 0.000179768 18.8479 0.000179768 17.7599C0.000179768 16.6719 0.25618 15.7652 0.76818 15.0399C1.30151 14.2932 2.02685 13.7386 2.94418 13.3759C3.88285 12.9919 4.94951 12.7999 6.14418 12.7999H10.4962V11.9039C10.4962 11.1572 10.2615 10.5492 9.79218 10.0799C9.32285 9.58923 8.57618 9.3439 7.55218 9.3439C6.54951 9.3439 5.80285 9.57857 5.31218 10.0479C4.82151 10.4959 4.50151 11.0826 4.35218 11.8079L0.64018 10.5599C0.89618 9.74924 1.30151 9.01324 1.85618 8.3519C2.43218 7.66924 3.18951 7.12524 4.12818 6.7199C5.08818 6.29323 6.25085 6.0799 7.61618 6.0799C9.70685 6.0799 11.3602 6.60257 12.5762 7.6479C13.7922 8.69323 14.4002 10.2079 14.4002 12.1919V18.1119C14.4002 18.7519 14.6988 19.0719 15.2962 19.0719H16.5762V22.3999H13.8882C13.0988 22.3999 12.4482 22.2079 11.9362 21.8239C11.4242 21.4399 11.1682 20.9279 11.1682 20.2879V20.2559H10.5602C10.4748 20.5119 10.2828 20.8532 9.98418 21.2799C9.68551 21.6852 9.21618 22.0479 8.57618 22.3679C7.93618 22.6879 7.06151 22.8479 5.95218 22.8479ZM6.65618 19.5839C7.78685 19.5839 8.70418 19.2746 9.40818 18.6559C10.1335 18.0159 10.4962 17.1732 10.4962 16.1279V15.8079H6.43218C5.68551 15.8079 5.09885 15.9679 4.67218 16.2879C4.24551 16.6079 4.03218 17.0559 4.03218 17.6319C4.03218 18.2079 4.25618 18.6772 4.70418 19.0399C5.15218 19.4026 5.80285 19.5839 6.65618 19.5839ZM25.1672 22.8479C23.9086 22.8479 22.7246 22.5386 21.6152 21.9199C20.5272 21.2799 19.6526 20.3519 18.9912 19.1359C18.3299 17.9199 17.9992 16.4479 17.9992 14.7199V14.2079C17.9992 12.4799 18.3299 11.0079 18.9912 9.7919C19.6526 8.5759 20.5272 7.65857 21.6152 7.0399C22.7032 6.3999 23.8872 6.0799 25.1672 6.0799C26.1272 6.0799 26.9272 6.19723 27.5672 6.4319C28.2286 6.64524 28.7619 6.92257 29.1672 7.2639C29.5726 7.60524 29.8819 7.9679 30.0952 8.3519H30.6712V-9.91821e-05H34.7032V22.3999H30.7352V20.4799H30.1592C29.7966 21.0772 29.2312 21.6212 28.4632 22.1119C27.7166 22.6026 26.6179 22.8479 25.1672 22.8479ZM26.3832 19.3279C27.6206 19.3279 28.6552 18.9332 29.4872 18.1439C30.3192 17.3332 30.7352 16.1599 30.7352 14.6239V14.3039C30.7352 12.7679 30.3192 11.6052 29.4872 10.8159C28.6766 10.0052 27.6419 9.5999 26.3832 9.5999C25.1459 9.5999 24.1112 10.0052 23.2792 10.8159C22.4472 11.6052 22.0312 12.7679 22.0312 14.3039V14.6239C22.0312 16.1599 22.4472 17.3332 23.2792 18.1439C24.1112 18.9332 25.1459 19.3279 26.3832 19.3279ZM43.657 22.8479C42.5264 22.8479 41.513 22.6559 40.617 22.2719C39.721 21.8666 39.0064 21.2906 38.473 20.5439C37.961 19.7759 37.705 18.8479 37.705 17.7599C37.705 16.6719 37.961 15.7652 38.473 15.0399C39.0064 14.2932 39.7317 13.7386 40.649 13.3759C41.5877 12.9919 42.6544 12.7999 43.849 12.7999H48.201V11.9039C48.201 11.1572 47.9664 10.5492 47.497 10.0799C47.0277 9.58923 46.281 9.3439 45.257 9.3439C44.2544 9.3439 43.5077 9.57857 43.017 10.0479C42.5264 10.4959 42.2064 11.0826 42.057 11.8079L38.345 10.5599C38.601 9.74924 39.0064 9.01324 39.561 8.3519C40.137 7.66924 40.8944 7.12524 41.833 6.7199C42.793 6.29323 43.9557 6.0799 45.321 6.0799C47.4117 6.0799 49.065 6.60257 50.281 7.6479C51.497 8.69323 52.105 10.2079 52.105 12.1919V18.1119C52.105 18.7519 52.4037 19.0719 53.001 19.0719H54.281V22.3999H51.593C50.8037 22.3999 50.153 22.2079 49.641 21.8239C49.129 21.4399 48.873 20.9279 48.873 20.2879V20.2559H48.265C48.1797 20.5119 47.9877 20.8532 47.689 21.2799C47.3904 21.6852 46.921 22.0479 46.281 22.3679C45.641 22.6879 44.7664 22.8479 43.657 22.8479ZM44.361 19.5839C45.4917 19.5839 46.409 19.2746 47.113 18.6559C47.8384 18.0159 48.201 17.1732 48.201 16.1279V15.8079H44.137C43.3904 15.8079 42.8037 15.9679 42.377 16.2879C41.9504 16.6079 41.737 17.0559 41.737 17.6319C41.737 18.2079 41.961 18.6772 42.409 19.0399C42.857 19.4026 43.5077 19.5839 44.361 19.5839ZM56.7846 22.3999V6.5279H60.7526V8.2559H61.3286C61.6059 7.72257 62.0646 7.2639 62.7046 6.8799C63.3446 6.47457 64.1873 6.2719 65.2326 6.2719C66.3633 6.2719 67.2699 6.4959 67.9526 6.9439C68.6353 7.37057 69.1579 7.9359 69.5206 8.6399H70.0966C70.4593 7.95724 70.9713 7.3919 71.6326 6.9439C72.2939 6.4959 73.2326 6.2719 74.4486 6.2719C75.4299 6.2719 76.3153 6.48524 77.1046 6.9119C77.9153 7.31723 78.5553 7.94657 79.0246 8.7999C79.5153 9.6319 79.7606 10.6879 79.7606 11.9679V22.3999H75.7286V12.2559C75.7286 11.3812 75.5046 10.7306 75.0566 10.3039C74.6086 9.8559 73.9793 9.6319 73.1686 9.6319C72.2513 9.6319 71.5366 9.93057 71.0246 10.5279C70.5339 11.1039 70.2886 11.9359 70.2886 13.0239V22.3999H66.2566V12.2559C66.2566 11.3812 66.0326 10.7306 65.5846 10.3039C65.1366 9.8559 64.5073 9.6319 63.6966 9.6319C62.7793 9.6319 62.0646 9.93057 61.5526 10.5279C61.0619 11.1039 60.8166 11.9359 60.8166 13.0239V22.3999H56.7846ZM83.6527 22.3999V-9.91821e-05H87.6847V12.3839H88.2607L93.5087 6.5279H98.7567L91.4287 14.2079L99.0127 22.3999H93.8287L88.2607 16.0959H87.6847V22.3999H83.6527ZM107.534 22.8479C105.955 22.8479 104.558 22.5172 103.342 21.8559C102.147 21.1732 101.209 20.2239 100.526 19.0079C99.8646 17.7706 99.534 16.3199 99.534 14.6559V14.2719C99.534 12.6079 99.8646 11.1679 100.526 9.9519C101.187 8.71457 102.115 7.76523 103.31 7.1039C104.505 6.42123 105.891 6.0799 107.47 6.0799C109.027 6.0799 110.382 6.4319 111.534 7.1359C112.686 7.81857 113.582 8.77857 114.222 10.0159C114.862 11.2319 115.182 12.6506 115.182 14.2719V15.6479H103.63C103.673 16.7359 104.078 17.6212 104.846 18.3039C105.614 18.9866 106.553 19.3279 107.662 19.3279C108.793 19.3279 109.625 19.0826 110.158 18.5919C110.691 18.1012 111.097 17.5572 111.374 16.9599L114.67 18.6879C114.371 19.2426 113.934 19.8506 113.358 20.5119C112.803 21.1519 112.057 21.7066 111.118 22.1759C110.179 22.6239 108.985 22.8479 107.534 22.8479ZM103.662 12.6399H111.086C111.001 11.7226 110.627 10.9866 109.966 10.4319C109.326 9.87724 108.483 9.5999 107.438 9.5999C106.35 9.5999 105.486 9.87724 104.846 10.4319C104.206 10.9866 103.811 11.7226 103.662 12.6399ZM120.054 28.7999V25.2799H128.694C129.292 25.2799 129.59 24.9599 129.59 24.3199V20.3199H129.014C128.844 20.6826 128.577 21.0452 128.214 21.4079C127.852 21.7706 127.361 22.0692 126.742 22.3039C126.124 22.5386 125.334 22.6559 124.374 22.6559C123.137 22.6559 122.049 22.3786 121.11 21.8239C120.193 21.2479 119.478 20.4586 118.966 19.4559C118.454 18.4532 118.198 17.3012 118.198 15.9999V6.5279H122.23V15.6799C122.23 16.8746 122.518 17.7706 123.094 18.3679C123.692 18.9652 124.534 19.2639 125.622 19.2639C126.86 19.2639 127.82 18.8586 128.502 18.0479C129.185 17.2159 129.526 16.0639 129.526 14.5919V6.5279H133.558V25.2159C133.558 26.3039 133.238 27.1679 132.598 27.8079C131.958 28.4692 131.105 28.7999 130.038 28.7999H120.054ZM144.833 22.8479C143.254 22.8479 141.857 22.5172 140.641 21.8559C139.446 21.1732 138.507 20.2239 137.825 19.0079C137.163 17.7706 136.833 16.3199 136.833 14.6559V14.2719C136.833 12.6079 137.163 11.1679 137.825 9.9519C138.486 8.71457 139.414 7.76523 140.609 7.1039C141.803 6.42123 143.19 6.0799 144.769 6.0799C146.326 6.0799 147.681 6.4319 148.833 7.1359C149.985 7.81857 150.881 8.77857 151.521 10.0159C152.161 11.2319 152.481 12.6506 152.481 14.2719V15.6479H140.929C140.971 16.7359 141.377 17.6212 142.145 18.3039C142.913 18.9866 143.851 19.3279 144.961 19.3279C146.091 19.3279 146.923 19.0826 147.457 18.5919C147.99 18.1012 148.395 17.5572 148.673 16.9599L151.969 18.6879C151.67 19.2426 151.233 19.8506 150.657 20.5119C150.102 21.1519 149.355 21.7066 148.417 22.1759C147.478 22.6239 146.283 22.8479 144.833 22.8479ZM140.961 12.6399H148.385C148.299 11.7226 147.926 10.9866 147.265 10.4319C146.625 9.87724 145.782 9.5999 144.737 9.5999C143.649 9.5999 142.785 9.87724 142.145 10.4319C141.505 10.9866 141.11 11.7226 140.961 12.6399ZM162.217 22.8479C160.148 22.8479 158.452 22.3999 157.129 21.5039C155.806 20.6079 155.006 19.3279 154.729 17.6639L158.441 16.7039C158.59 17.4506 158.836 18.0372 159.177 18.4639C159.54 18.8906 159.977 19.1999 160.489 19.3919C161.022 19.5626 161.598 19.6479 162.217 19.6479C163.156 19.6479 163.849 19.4879 164.297 19.1679C164.745 18.8266 164.969 18.4106 164.969 17.9199C164.969 17.4292 164.756 17.0559 164.329 16.7999C163.902 16.5226 163.22 16.2986 162.281 16.1279L161.385 15.9679C160.276 15.7546 159.262 15.4666 158.345 15.1039C157.428 14.7199 156.692 14.1972 156.137 13.5359C155.582 12.8746 155.305 12.0212 155.305 10.9759C155.305 9.39723 155.881 8.1919 157.033 7.3599C158.185 6.50657 159.7 6.0799 161.577 6.0799C163.348 6.0799 164.82 6.47457 165.993 7.2639C167.166 8.05324 167.934 9.0879 168.297 10.3679L164.553 11.5199C164.382 10.7092 164.03 10.1332 163.497 9.7919C162.985 9.45057 162.345 9.2799 161.577 9.2799C160.809 9.2799 160.222 9.41857 159.817 9.6959C159.412 9.9519 159.209 10.3146 159.209 10.7839C159.209 11.2959 159.422 11.6799 159.849 11.9359C160.276 12.1706 160.852 12.3519 161.577 12.4799L162.473 12.6399C163.668 12.8532 164.745 13.1412 165.705 13.5039C166.686 13.8452 167.454 14.3466 168.009 15.0079C168.585 15.6479 168.873 16.5226 168.873 17.6319C168.873 19.2959 168.265 20.5866 167.049 21.5039C165.854 22.3999 164.244 22.8479 162.217 22.8479Z" fill="white"/>
</svg>
